# xmcd
#
# Track frame offsets:
#	150
#	14275
#	26912
#	39525
#	52437
#	70887
#	80150
#	93225
#	104687
#	115837
#	121412
#	138200
#	147237
#	159412
#	170525
#	181962
#	195300
#	205800
#	216637
#	235937
#
# Disc length: 3327 seconds
#
# Revision: 0
# Processed by: cddbd v1.5.2PL0 Copyright (c) Steve Scherf et al.
# Submitted via: audiograbber 1.83.01
#
DISCID=2a0cfd14
DTITLE=Various Artist - Country Outlaws
DYEAR=1990
DGENRE=Country
TTITLE0=George Jones - I Always Get Lucky With You
TTITLE1=Mickey Gilley - Don't The Girls All Get Prettier At Closing Time
TTITLE2=Ronnie McDowell - Older Women Make Good Lovers
TTITLE3=Charlie Rich - Behind Closed Doors
TTITLE4=Ed Bruce - Mammas Don't Let Your Babies Grow Up To Be Cowboys
TTITLE5=Porter Wagoner - Louisiana Saturday Night
TTITLE6=Mel Mcdaniel - Baby's Got Her Blue Jeans On
TTITLE7=Gene Watson - You're Out Doin' (What I'm Here Doin' Without)
TTITLE8=Bellamy Brothers - Let Your Love Flow
TTITLE9=Bobby Bare - 500 Miles Away From Home
TTITLE10=Nitty Gritty Dirt Band - Long Hard Road
TTITLE11=T.G. Sheppard - I'll Be Coming Back For More
TTITLE12=Mel Tillis - Ruby Don't Take Your Love To Town
TTITLE13=Faron Young - Goin' Steady
TTITLE14=Tom T. Hall - Ravishing Ruby
TTITLE15=Moe Bandy - Bandy, The Rodeo Clown
TTITLE16=Boxcar Willie - Wabash Cannonball
TTITLE17=Rex Allen Jr. - Lonely Street
TTITLE18=Razzy Bailey - Midnight Hauler
TTITLE19=Freddy Weller - Games People Play
EXTD=YEAR: 1990
EXTT0=
EXTT1=
EXTT2=
EXTT3=
EXTT4=
EXTT5=
EXTT6=
EXTT7=
EXTT8=
EXTT9=
EXTT10=
EXTT11=
EXTT12=
EXTT13=
EXTT14=
EXTT15=
EXTT16=
EXTT17=
EXTT18=
EXTT19=
PLAYORDER=
